<?xml version="1.0" encoding="UTF-8"?>
<svg viewBox="0 0 286 63" version="1.1" xmlns="http://www.w3.org/2000/svg" xmlns:xlink="http://www.w3.org/1999/xlink">
    <title>Logotype</title>
    <defs>
        <linearGradient x1="50%" y1="0%" x2="50%" y2="100%" id="linearGradient-1">
            <stop stop-color="#FB5B70" offset="0%"></stop>
            <stop stop-color="#FFBA6C" offset="100%"></stop>
        </linearGradient>
    </defs>
    <g id="Page-1" stroke="none" stroke-width="1" fill="none" fill-rule="evenodd">
        <g id="Logo-Gradient" transform="translate(-156.000000, -69.000000)" fill-rule="nonzero">
            <g id="Dark-1" transform="translate(0.000000, 0.000000)">
                <g id="logo" transform="translate(0.000000, 0.000000)">
                    <g id="Logotype" transform="translate(156.000000, 68.000000)">
                        <text id="DIAGWIZ" fill="#FFFFFF" font-family="RedHatDisplay-Bold, Red Hat Display" font-size="48">
                            <tspan x="81" y="49">DIAGWIZ</tspan>
                        </text>
                        <g id="sequence" transform="translate(0.000000, 1.000000)" fill="url(#linearGradient-1)">
                            <path d="M50.34,59.141 C45.334,59.141 41.175,55.526 40.29,50.775 C40.1702835,50.1570412 40.1073545,49.5294255 40.102,48.9 C40.102,48.259 40.178,47.636 40.29,47.025 C40.6556434,45.0652254 41.5877388,43.2556183 42.971,41.82 C44.835,39.881 47.441,38.659 50.34,38.659 C55.987,38.659 60.581,43.252 60.581,48.9 C60.581,54.547 55.987,59.141 50.34,59.141 Z M24.232,48.9 C24.232,49.541 24.157,50.164 24.045,50.775 C23.16,55.526 18.998,59.141 13.995,59.141 C8.347,59.141 3.75,54.547 3.75,48.9 C3.75,43.252 8.348,38.659 13.995,38.659 C16.215,38.659 18.255,39.386 19.935,40.594 C20.9640674,41.3224347 21.8479112,42.2368026 22.541,43.29 C23.2860988,44.4223992 23.7974403,45.6922531 24.045,47.025 C24.157,47.636 24.233,48.259 24.233,48.9 L24.232,48.9 Z M40.102,13.991 C40.102,13.35 40.178,12.727 40.29,12.116 C41.175,7.365 45.334,3.75 50.34,3.75 C55.987,3.75 60.581,8.344 60.581,13.991 C60.581,19.639 55.987,24.233 50.34,24.233 C48.12,24.233 46.076,23.505 44.4,22.298 C43.8866445,21.9342027 43.4082496,21.5234325 42.971,21.071 C42.5336324,20.6177728 42.1383414,20.125751 41.79,19.601 C41.0477152,18.4675544 40.5378581,17.1980105 40.29,15.866 C40.1702835,15.2480412 40.1073545,14.6204255 40.102,13.991 L40.102,13.991 Z M24.232,13.991 C24.232,14.633 24.157,15.255 24.045,15.866 C23.6761828,17.8246859 22.744532,19.6334299 21.364,21.071 C19.5,23.01 16.89,24.233 13.995,24.233 C8.347,24.233 3.75,19.639 3.75,13.991 C3.75,8.344 8.348,3.75 13.995,3.75 C18.998,3.75 23.16,7.365 24.045,12.116 C24.157,12.727 24.233,13.35 24.233,13.991 L24.232,13.991 Z M50.34,34.91 C46.384,34.91 42.821,36.579 40.271,39.23 C38.269,41.319 36.949,44.022 36.54,47.026 L27.795,47.026 C27.472,44.675 26.599,42.515 25.256,40.681 L33.521,32.746 L41.69,24.9 C44.079,26.798 47.06,27.983 50.341,27.983 C58.059,27.983 64.332,21.705 64.332,13.991 C64.331,6.278 58.058,0 50.34,0 C43.271,0 37.466,5.295 36.54,12.116 L27.795,12.116 C26.865,5.295 21.064,0 13.995,0 C6.277,0 0,6.277 0,13.991 C0,21.705 6.277,27.983 13.995,27.983 C17.951,27.983 21.514,26.313 24.06,23.663 C26.062,21.573 27.386,18.87 27.795,15.866 L36.54,15.866 C36.8427644,18.159277 37.7141975,20.340438 39.075,22.211 L30.814,30.146 L22.642,37.991 C20.254,36.094 17.272,34.909 13.995,34.909 C6.277,34.909 0,41.186 0,48.9 C0,56.614 6.277,62.891 13.995,62.891 C21.064,62.891 26.865,57.596 27.795,50.775 L36.54,50.775 C37.466,57.596 43.271,62.891 50.34,62.891 C58.058,62.891 64.331,56.614 64.331,48.9 C64.331,41.186 58.058,34.909 50.34,34.909 L50.34,34.91 Z" id="Shape"></path>
                        </g>
                    </g>
                </g>
            </g>
        </g>
    </g>
</svg>
